<!DOCTYPE svg PUBLIC "-//W3C//DTD SVG 1.1//EN" "http://www.w3.org/Graphics/SVG/1.1/DTD/svg11.dtd">
<!-- Uploaded to: SVG Repo, www.svgrepo.com, Transformed by: SVG Repo Mixer Tools -->
<svg fill="#ed61ff" height="800px" width="800px" version="1.1" id="Layer_1" xmlns="http://www.w3.org/2000/svg" xmlns:xlink="http://www.w3.org/1999/xlink" viewBox="0 0 512 512" xml:space="preserve" stroke="#ed61ff">
<g id="SVGRepo_bgCarrier" stroke-width="0"/>
<g id="SVGRepo_tracerCarrier" stroke-linecap="round" stroke-linejoin="round"/>
<g id="SVGRepo_iconCarrier"> <g> <g> <path d="M455.111,0H56.889L28.444,512h455.111L455.111,0z M376.889,118.308v66.581c0,66.658-54.231,120.889-120.889,120.889 s-120.889-54.231-120.889-120.889v-66.581c-4.412-5.013-7.111-11.565-7.111-18.752c0-15.684,12.76-28.444,28.444-28.444 s28.444,12.76,28.444,28.444c0,7.187-2.699,13.739-7.111,18.752v66.581c0,43.132,35.091,78.222,78.222,78.222 s78.222-35.091,78.222-78.222v-66.581c-4.412-5.012-7.111-11.565-7.111-18.752c0-15.684,12.76-28.444,28.444-28.444 c15.684,0,28.444,12.76,28.444,28.444C384,106.742,381.301,113.294,376.889,118.308z"/> </g> </g> </g>
</svg>